<svg xmlns="http://www.w3.org/2000/svg" viewBox="0 0 1000 200" width="1000" height="200">
  <!-- PLOTTER VINYL CUT FILE (ORACAL 641/751 CUTTING READY) -->
  <g fill="#FFFFFF" font-family="'Impact', 'Arial Black', sans-serif">
    
    <!-- Phone Call Outline Icon (Single Compound Path style) -->
    <path d="M 50 100 A 45 45 0 1 1 140 100 A 45 45 0 1 1 50 100 Z M 75 75 C 73 75 70 77 70 80 C 70 94 82 106 96 106 C 99 106 101 103 101 101 L 97 93 C 96 92 94 92 92 93 L 88 96 C 83 93 79 89 76 84 L 79 80 C 80 78 80 76 79 75 Z"/>

    <!-- Large 1351 Cutout Number -->
    <text x="165" y="140" font-size="130" font-weight="900" font-style="italic" letter-spacing="4">1351</text>

    <!-- VIJDON TAXI Text -->
    <text x="510" y="95" font-size="62" font-weight="900" font-style="italic" letter-spacing="4">VIJDON</text>
    <text x="510" y="155" font-size="52" font-weight="900" font-style="italic" letter-spacing="8">TAXI</text>

    <!-- Top & Bottom Divider Lines -->
    <rect x="50" y="20" width="900" height="8" rx="4"/>
    <rect x="50" y="175" width="900" height="8" rx="4"/>
  </g>
</svg>
